HIERARCHY
ROOT joint_Root
{
	OFFSET 0.0 0.0 0.0
	CHANNELS 6 Xposition Yposition Zposition Zrotation Xrotation Yrotation 
	JOINT Hips
	{
		OFFSET 4.5925 91.4895 -427.239
		CHANNELS 6 Xposition Yposition Zposition Zrotation Xrotation Yrotation 
		JOINT Spine
		{
			OFFSET 15.7357 0.0 0.0
			CHANNELS 6 Xposition Yposition Zposition Zrotation Xrotation Yrotation 
			JOINT Chest
			{
				OFFSET 8.98455 -0.406207 0.0
				CHANNELS 6 Xposition Yposition Zposition Zrotation Xrotation Yrotation 
				JOINT Neck
				{
					OFFSET 16.3773 0.0 0.0
					CHANNELS 6 Xposition Yposition Zposition Zrotation Xrotation Yrotation 
					JOINT Head
					{
						OFFSET 6.45672 0.0 0.0
						CHANNELS 6 Xposition Yposition Zposition Zrotation Xrotation Yrotation 
						End Site
						{
							OFFSET 0.0 0.0 0.0
						}
					}
				}
				JOINT Shoulder_L
				{
					OFFSET 12.9942 -0.242716 4.98039
					CHANNELS 6 Xposition Yposition Zposition Zrotation Xrotation Yrotation 
					JOINT UpperArm_L
					{
						OFFSET 5.34809 0.0 0.0
						CHANNELS 6 Xposition Yposition Zposition Zrotation Xrotation Yrotation 
						JOINT LowerArm_L
						{
							OFFSET 24.3286 1.87007e-05 0.0
							CHANNELS 6 Xposition Yposition Zposition Zrotation Xrotation Yrotation 
							JOINT Hand_L
							{
								OFFSET 22.2916 0.0 0.0
								CHANNELS 6 Xposition Yposition Zposition Zrotation Xrotation Yrotation 
								End Site
								{
									OFFSET 0.0 0.0 0.0
								}
							}
						}
					}
				}
				JOINT Shoulder_R
				{
					OFFSET 12.9945 -0.242716 -4.98039
					CHANNELS 6 Xposition Yposition Zposition Zrotation Xrotation Yrotation 
					JOINT UpperArm_R
					{
						OFFSET -5.34813 0.0 0.0
						CHANNELS 6 Xposition Yposition Zposition Zrotation Xrotation Yrotation 
						JOINT LowerArm_R
						{
							OFFSET -24.3289 0.000322201 0.0
							CHANNELS 6 Xposition Yposition Zposition Zrotation Xrotation Yrotation 
							JOINT Hand_R
							{
								OFFSET -22.2915 -0.000108084 0.0
								CHANNELS 6 Xposition Yposition Zposition Zrotation Xrotation Yrotation 
								End Site
								{
									OFFSET 0.0 0.0 0.0
								}
							}
						}
					}
				}
			}
		}
		JOINT UpperLeg_L
		{
			OFFSET -2.19248 -6.46944 0.0
			CHANNELS 6 Xposition Yposition Zposition Zrotation Xrotation Yrotation 
			JOINT LowerLeg_L
			{
				OFFSET 39.0811 0.0 -1.23785e-05
				CHANNELS 6 Xposition Yposition Zposition Zrotation Xrotation Yrotation 
				JOINT Foot_L
				{
					OFFSET 40.9854 0.0 -1.26872e-05
					CHANNELS 6 Xposition Yposition Zposition Zrotation Xrotation Yrotation 
					JOINT Toes_L
					{
						OFFSET 11.7543 0.0 0.0
						CHANNELS 6 Xposition Yposition Zposition Zrotation Xrotation Yrotation 
						End Site
						{
							OFFSET 0.0 0.0 0.0
						}
					}
				}
			}
		}
		JOINT UpperLeg_R
		{
			OFFSET -2.19251 6.46944 0.0
			CHANNELS 6 Xposition Yposition Zposition Zrotation Xrotation Yrotation 
			JOINT LowerLeg_R
			{
				OFFSET -39.0811 -0.00228153 -0.0401928
				CHANNELS 6 Xposition Yposition Zposition Zrotation Xrotation Yrotation 
				JOINT Foot_R
				{
					OFFSET -40.9854 0.0 0.0
					CHANNELS 6 Xposition Yposition Zposition Zrotation Xrotation Yrotation 
					JOINT Toes_R
					{
						OFFSET -11.7543 0.0 0.0
						CHANNELS 6 Xposition Yposition Zposition Zrotation Xrotation Yrotation 
						End Site
						{
							OFFSET 0.0 0.0 0.0
						}
					}
				}
			}
		}
	}
}
MOTION
Frames:	8
Frame Time:	0.0333333
0.000000 0.000000 0.000000 0.000000 0.000000 -0.000000 -3.015630 82.476600 0.685686 89.269700 -4.308930 13.110000 15.735700 0.000005 -0.000001 99.503800 80.109000 -101.966000 8.984550 -0.406207 -0.000000 11.830600 3.151410 -5.251100 16.377300 -0.000001 -0.000001 -2.589010 -7.962190 1.742340 6.456720 -0.000001 -0.000000 -0.885954 -14.410100 12.865500 12.994200 -0.242716 4.980390 -92.539900 6.831540 -69.548900 5.348090 -0.000007 -0.000001 -65.253300 8.044290 -11.766300 24.328600 0.000019 0.000005 1.413100 3.427370 -22.420200 22.291600 -0.000001 0.000005 22.316300 5.085150 5.453620 12.994500 -0.242716 -4.980390 88.779900 8.726700 -82.009300 -5.348130 -0.000001 -0.000004 -65.772000 32.968300 -6.296940 -24.328900 0.000322 -0.000009 -4.514670 -8.414310 -28.346100 -22.291500 -0.000108 -0.000004 20.650300 5.426530 -3.820220 -2.192480 -6.469440 -0.000000 -170.858000 -12.509400 -10.069400 39.081100 -0.000007 -0.000012 -0.566411 0.321604 60.413700 40.985400 -0.000006 -0.000013 -0.274739 6.315740 -86.298400 11.754300 -0.000000 0.000003 -0.000406 -0.003351 -16.701000 -2.192510 6.469440 -0.000001 176.872000 13.022600 169.491000 -39.081100 -0.002282 -0.040193 0.078303 -0.041228 61.237700 -40.985400 0.000008 0.000006 9.353740 5.816240 -87.010600 -11.754300 -0.000006 -0.000006 -0.890890 -1.093710 -17.368800
0.000000 0.000000 0.000000 0.000000 0.000000 -0.000000 -1.935340 84.217800 1.220870 90.082400 -6.961450 11.787700 15.735700 0.000005 -0.000001 100.662000 81.299400 -102.203000 8.984550 -0.406207 -0.000000 9.390290 3.179650 -3.340040 16.377300 -0.000001 -0.000001 -2.515340 -7.019220 2.255070 6.456720 -0.000001 -0.000000 -0.567108 -12.491900 11.087300 12.994200 -0.242716 4.980390 -92.253900 5.796800 -68.709300 5.348090 -0.000007 -0.000001 -62.180900 0.691777 -8.344510 24.328600 0.000019 0.000005 2.607670 7.009500 -20.475700 22.291600 -0.000001 0.000005 20.312900 5.057880 6.059560 12.994500 -0.242716 -4.980390 88.802400 7.957970 -81.412800 -5.348130 -0.000001 -0.000004 -66.321000 31.220100 -5.078290 -24.328900 0.000322 -0.000009 -4.377820 -8.950650 -26.194100 -22.291500 -0.000108 -0.000004 20.715200 5.429260 -3.913410 -2.192480 -6.469440 -0.000000 -172.876000 -13.794100 -8.034970 39.081100 -0.000007 -0.000012 -0.515161 0.361392 54.951000 40.985400 -0.000006 -0.000013 -0.639998 4.192290 -84.271200 11.754300 -0.000000 0.000003 -0.000382 -0.003180 -16.695000 -2.192510 6.469440 -0.000001 175.624000 11.336100 170.263000 -39.081100 -0.002282 -0.040193 0.056525 -0.035228 56.540400 -40.985400 0.000008 0.000006 8.847590 7.933570 -84.564100 -11.754300 -0.000006 -0.000006 -0.775200 -0.948298 -17.575600
0.000000 0.000000 0.000000 0.000000 0.000000 -0.000000 -0.821636 86.245500 1.746280 90.658300 -9.875120 9.763970 15.735700 0.000005 -0.000001 104.205000 82.769100 -104.385000 8.984550 -0.406207 -0.000000 6.268450 3.540940 -0.553865 16.377300 -0.000001 -0.000001 -1.383080 -5.990160 2.542660 6.456720 -0.000001 -0.000000 -0.221924 -10.423900 8.337920 12.994200 -0.242716 4.980390 -91.591000 3.929800 -67.937400 5.348090 -0.000007 -0.000001 -55.470700 -7.570400 -6.915330 24.328600 0.000019 0.000005 2.273300 7.164780 -17.650700 22.291600 -0.000001 0.000005 20.979200 5.005830 7.195010 12.994500 -0.242716 -4.980390 88.902400 6.567850 -80.490500 -5.348130 -0.000001 -0.000004 -66.881200 28.131300 -2.853220 -24.328900 0.000322 -0.000009 -3.896470 -8.162060 -25.623200 -22.291500 -0.000108 -0.000004 20.095400 5.406470 -3.147520 -2.192480 -6.469440 -0.000000 -174.817000 -15.545500 -6.149750 39.081100 -0.000007 -0.000012 -0.435407 0.392276 47.984000 40.985400 -0.000006 -0.000013 -0.771297 2.267520 -81.420900 11.754300 -0.000000 0.000003 -0.000354 -0.002988 -16.688200 -2.192510 6.469440 -0.000001 174.673000 9.855810 170.872000 -39.081100 -0.002282 -0.040193 0.036531 -0.027553 50.381700 -40.985400 0.000008 0.000006 8.200250 10.355100 -81.315900 -11.754300 -0.000006 -0.000006 -0.651035 -0.795974 -17.774800
0.000000 0.000000 0.000000 0.000000 0.000000 -0.000000 0.114382 88.052400 2.173180 90.719900 -12.019500 7.839390 15.735700 0.000005 -0.000001 109.249000 84.030400 -107.817000 8.984550 -0.406207 -0.000000 3.465670 3.877580 2.744640 16.377300 -0.000001 -0.000001 0.027104 -5.100130 2.856560 6.456720 -0.000001 -0.000000 0.180962 -8.506090 4.844610 12.994200 -0.242716 4.980390 -90.618400 1.496730 -67.546200 5.348090 -0.000007 -0.000001 -47.435600 -22.450300 -8.078360 24.328600 0.000019 0.000005 0.636999 2.154230 -16.474900 22.291600 -0.000001 0.000005 22.224300 4.991890 7.492230 12.994500 -0.242716 -4.980390 88.974600 5.334920 -79.102600 -5.348130 -0.000001 -0.000004 -66.041100 25.198300 -0.750013 -24.328900 0.000322 -0.000009 -4.025280 -8.210790 -26.224900 -22.291500 -0.000108 -0.000004 19.104900 5.411450 -3.313970 -2.192480 -6.469440 -0.000000 -176.127000 -16.842800 -4.341460 39.081100 -0.000007 -0.000012 -0.353541 0.406594 41.008300 40.985400 -0.000006 -0.000013 -0.669181 0.945537 -78.403200 11.754300 -0.000000 0.000003 -0.000262 -0.002319 -16.664300 -2.192510 6.469440 -0.000001 174.202000 9.280110 171.854000 -39.081100 -0.002282 -0.040193 0.022768 -0.020226 43.953700 -40.985400 0.000008 0.000006 7.527510 12.589300 -77.986000 -11.754300 -0.000006 -0.000006 -0.549746 -0.674250 -17.922900
0.000000 0.000000 0.000000 0.000000 0.000000 -0.000000 0.826061 89.308000 2.392690 90.775200 -13.790300 6.256790 15.735700 0.000005 -0.000001 115.324000 84.837400 -112.619000 8.984550 -0.406207 -0.000000 1.476610 4.265880 5.353320 16.377300 -0.000001 -0.000001 1.204260 -4.198640 3.504160 6.456720 -0.000001 -0.000000 0.340048 -6.983050 1.640760 12.994200 -0.242716 4.980390 -89.534500 -1.125250 -67.516100 5.348090 -0.000007 -0.000001 -36.131400 -33.841700 -12.115200 24.328600 0.000019 0.000005 0.034088 0.115641 -16.505800 22.291600 -0.000001 0.000005 22.021500 5.054650 6.126770 12.994500 -0.242716 -4.980390 88.919600 4.968510 -77.716500 -5.348130 -0.000001 -0.000004 -63.787200 23.363100 0.172601 -24.328900 0.000322 -0.000009 -4.500850 -8.959570 -26.808700 -22.291500 -0.000108 -0.000004 18.604600 5.419400 -3.579100 -2.192480 -6.469440 -0.000000 -177.175000 -17.973200 -3.053560 39.081100 -0.000007 -0.000012 -0.274140 0.385815 35.396200 40.985400 -0.000006 -0.000013 -0.501615 0.058064 -75.872400 11.754300 -0.000000 0.000003 -0.000204 -0.001882 -16.648500 -2.192510 6.469440 -0.000001 174.005000 8.526750 172.539000 -39.081100 -0.002282 -0.040193 0.015954 -0.015779 38.769700 -40.985400 0.000008 0.000006 7.031910 13.834100 -75.519200 -11.754300 -0.000006 -0.000006 -0.281050 -0.356900 -17.913200
0.000000 0.000000 0.000000 0.000000 0.000000 -0.000000 1.346100 89.982200 2.381380 90.803800 -14.255700 5.082140 15.735700 0.000005 -0.000001 116.810000 85.429600 -113.399000 8.984550 -0.406207 -0.000000 0.287287 3.899190 6.809420 16.377300 -0.000001 -0.000001 2.057590 -3.792570 3.948440 6.456720 -0.000001 -0.000000 0.237921 -6.201060 0.274863 12.994200 -0.242716 4.980390 -88.119300 -4.728360 -68.274600 5.348090 -0.000007 -0.000001 -22.135800 -42.663900 -15.170300 24.328600 0.000019 0.000005 -2.386170 -7.069530 -18.685500 22.291600 -0.000001 0.000005 20.363700 5.159430 3.713570 12.994500 -0.242716 -4.980390 88.596400 5.904590 -76.604200 -5.348130 -0.000001 -0.000004 -60.320500 22.166200 -0.127279 -24.328900 0.000322 -0.000009 -4.437580 -8.982120 -26.424700 -22.291500 -0.000108 -0.000004 18.650700 5.417330 -3.509560 -2.192480 -6.469440 -0.000000 -178.045000 -17.950700 -2.760050 39.081100 -0.000007 -0.000012 -0.217207 0.346167 32.107100 40.985400 -0.000006 -0.000013 -0.275185 -0.400642 -74.262000 11.754300 -0.000000 0.000003 -0.000168 -0.001600 -16.638200 -2.192510 6.469440 -0.000001 173.841000 8.734060 172.866000 -39.081100 -0.002282 -0.040193 0.015926 -0.017746 35.453700 -40.985400 0.000008 0.000006 6.873950 14.459900 -74.311700 -11.754300 -0.000006 -0.000006 -0.002210 -0.031310 -17.846300
0.000000 0.000000 0.000000 0.000000 0.000000 -0.000000 1.609750 90.274200 2.174530 90.443600 -12.403300 4.671290 15.735700 0.000005 -0.000001 109.038000 85.878400 -105.230000 8.984550 -0.406207 -0.000000 -0.042429 2.429020 7.613750 16.377300 -0.000001 -0.000001 2.615470 -4.144510 3.207040 6.456720 -0.000001 -0.000000 -0.061805 -6.618840 0.420220 12.994200 -0.242716 4.980390 -86.080400 -10.247400 -68.936700 5.348090 -0.000007 -0.000001 -9.767460 -50.782000 -16.713700 24.328600 0.000019 0.000005 -5.014280 -10.298300 -26.150900 22.291600 -0.000001 0.000005 21.477500 5.245770 1.551660 12.994500 -0.242716 -4.980390 88.125700 7.337010 -75.627500 -5.348130 -0.000001 -0.000004 -56.713400 20.357300 -0.856310 -24.328900 0.000322 -0.000009 -3.792470 -8.066230 -25.279800 -22.291500 -0.000108 -0.000004 19.275800 5.402530 -3.023370 -2.192480 -6.469440 -0.000000 -178.110000 -16.546800 -3.009950 39.081100 -0.000007 -0.000012 -0.190057 0.314941 31.110000 40.985400 -0.000006 -0.000013 0.090747 0.060346 -73.462400 11.754300 -0.000000 0.000003 -0.000136 -0.001335 -16.628400 -2.192510 6.469440 -0.000001 173.938000 10.651400 173.684000 -39.081100 -0.002282 -0.040193 0.016729 -0.020248 33.564800 -40.985400 0.000008 0.000006 6.625260 14.599200 -73.712700 -11.754300 -0.000006 -0.000006 -0.001891 -0.027346 -17.685100
0.000000 0.000000 0.000000 0.000000 0.000000 -0.000000 1.883280 90.410100 1.861620 89.981600 -9.120640 4.732550 15.735700 0.000005 -0.000001 93.946900 86.016500 -89.968600 8.984550 -0.406207 -0.000000 0.184646 0.285417 7.950770 16.377300 -0.000001 -0.000001 2.747980 -4.371710 0.586700 6.456720 -0.000001 -0.000000 0.072099 -7.452400 1.664650 12.994200 -0.242716 4.980390 -83.792300 -15.488900 -67.840100 5.348090 -0.000007 -0.000001 -0.542924 -59.222000 -19.258400 24.328600 0.000019 0.000005 -3.811390 -4.458430 -40.676100 22.291600 -0.000001 0.000005 25.216500 5.248560 1.466800 12.994500 -0.242716 -4.980390 87.935100 7.929610 -75.353000 -5.348130 -0.000001 -0.000004 -55.322800 16.508300 -0.968200 -24.328900 0.000322 -0.000009 -2.859210 -6.394080 -24.146000 -22.291500 -0.000108 -0.000004 21.410100 5.382020 -2.364610 -2.192480 -6.469440 -0.000000 -178.091000 -13.874300 -3.521330 39.081100 -0.000007 -0.000012 -0.194016 0.321017 31.148100 40.985400 -0.000006 -0.000013 0.513997 0.497136 -72.994600 11.754300 -0.000000 0.000003 -0.000146 -0.001422 -16.631700 -2.192510 6.469440 -0.000001 173.715000 14.530900 174.740000 -39.081100 -0.002282 -0.040193 0.015967 -0.019851 32.549900 -40.985400 0.000008 0.000006 6.530450 15.424200 -73.242600 -11.754300 -0.000006 -0.000006 -0.001577 -0.023293 -17.520300
